<svg xmlns="http://www.w3.org/2000/svg" width="16" height="16" viewBox="0 0 16 16" fill="#222"><path d="M11.03,2.72 L13.78,5.47 Q14,5.69 14,6 Q14,6.31 13.78,6.53 L11.03,9.28 Q10.81,9.5 10.5,9.5 Q10.19,9.5 9.97,9.28 Q9.75,9.06 9.75,8.75 Q9.75,8.44 9.97,8.22 L12.19,6 L9.97,3.78 Q9.75,3.56 9.75,3.25 Q9.75,2.94 9.97,2.72 Q10.19,2.5 10.5,2.5 Q10.81,2.5 11.03,2.72 Z"/><path d="M13.25,6.75 L6.5,6.75 Q3.5,6.75 3.5,9.75 Q3.5,12.75 6.5,12.75 L10,12.75 Q10.31,12.75 10.53,12.97 Q10.75,13.19 10.75,13.5 Q10.75,13.81 10.53,14.03 Q10.31,14.25 10,14.25 L6.5,14.25 Q4.64,14.25 3.32,12.93 Q2,11.61 2,9.75 Q2,7.89 3.32,6.57 Q4.64,5.25 6.5,5.25 L13.25,5.25 Q13.56,5.25 13.78,5.47 Q14,5.69 14,6 Q14,6.31 13.78,6.53 Q13.56,6.75 13.25,6.75 Z"/></svg>
