<svg xmlns="http://www.w3.org/2000/svg" width="16" height="16" viewBox="0 0 16 16" fill="#222"><path d="M4.25,2.25 L4.25,14 Q4.25,14.31 4.03,14.53 Q3.81,14.75 3.5,14.75 Q3.19,14.75 2.97,14.53 Q2.75,14.31 2.75,14 L2.75,2.25 Q2.75,1.94 2.97,1.72 Q3.19,1.5 3.5,1.5 Q3.81,1.5 4.03,1.72 Q4.25,1.94 4.25,2.25 Z"/><path d="M3.5,2.25 L12.75,2.25 Q13.06,2.25 13.28,2.47 Q13.5,2.69 13.5,3 Q13.5,3.24 13.36,3.44 L11.52,6 L13.36,8.56 Q13.54,8.82 13.49,9.12 Q13.44,9.43 13.19,9.61 Q12.99,9.75 12.75,9.75 L3.5,9.75 Q3.19,9.75 2.97,9.53 Q2.75,9.31 2.75,9 Q2.75,8.69 2.97,8.47 Q3.19,8.25 3.5,8.25 L11.29,8.25 L9.99,6.44 Q9.85,6.24 9.85,6 Q9.85,5.76 9.99,5.56 L11.29,3.75 L3.5,3.75 Q3.19,3.75 2.97,3.53 Q2.75,3.31 2.75,3 Q2.75,2.69 2.97,2.47 Q3.19,2.25 3.5,2.25 Z"/></svg>
