<svg xmlns="http://www.w3.org/2000/svg" width="16" height="16" viewBox="0 0 16 16" fill="#222"><path d="M5.25,11.25 L5.25,10.82 Q3,9.32 3,6.5 Q3,4.43 4.46,2.96 Q5.93,1.5 8,1.5 Q10.07,1.5 11.54,2.96 Q13,4.43 13,6.5 Q13,9.32 10.75,10.82 L10.75,11.25 Q10.75,11.56 10.53,11.78 Q10.31,12 10,12 L6,12 Q5.69,12 5.47,11.78 Q5.25,11.56 5.25,11.25 Z M6.75,10.5 L9.25,10.5 L9.25,10.4 Q9.25,9.96 9.63,9.75 Q11.5,8.68 11.5,6.5 Q11.5,3 8,3 Q4.5,3 4.5,6.5 Q4.5,8.68 6.37,9.75 Q6.75,9.96 6.75,10.4 L6.75,10.5 Z"/><path d="M6.5,13 L9.5,13 Q9.81,13 10.03,13.22 Q10.25,13.44 10.25,13.75 Q10.25,14.06 10.03,14.28 Q9.81,14.5 9.5,14.5 L6.5,14.5 Q6.19,14.5 5.97,14.28 Q5.75,14.06 5.75,13.75 Q5.75,13.44 5.97,13.22 Q6.19,13 6.5,13 Z"/></svg>
