<svg xmlns="http://www.w3.org/2000/svg" width="16" height="16" viewBox="0 0 16 16" fill="#222"><path d="M15,8 Q15,10.9 12.95,12.95 Q10.9,15 8,15 Q5.1,15 3.05,12.95 Q1,10.9 1,8 Q1,5.1 3.05,3.05 Q5.1,1 8,1 Q10.9,1 12.95,3.05 Q15,5.1 15,8 Z M13.5,8 Q13.5,5.72 11.89,4.11 Q10.28,2.5 8,2.5 Q5.72,2.5 4.11,4.11 Q2.5,5.72 2.5,8 Q2.5,10.28 4.11,11.89 Q5.72,13.5 8,13.5 Q10.28,13.5 11.89,11.89 Q13.5,10.28 13.5,8 Z"/><path d="M8.75,4.5 L8.75,7.6 L10.82,8.98 Q11.07,9.15 11.14,9.45 Q11.2,9.76 11.02,10.02 Q10.85,10.27 10.55,10.34 Q10.24,10.4 9.98,10.22 L7.58,8.62 Q7.25,8.4 7.25,8 L7.25,4.5 Q7.25,4.19 7.47,3.97 Q7.69,3.75 8,3.75 Q8.31,3.75 8.53,3.97 Q8.75,4.19 8.75,4.5 Z"/></svg>
